<svg width="124" height="43" viewBox="0 0 124 43" fill="none" xmlns="http://www.w3.org/2000/svg">
<path d="M78.564 12.5885C77.7903 13.3373 76.8562 13.7168 75.7541 13.7168C74.6546 13.7168 73.7205 13.3373 72.9697 12.5885C72.2087 11.8371 71.832 10.9086 71.832 9.81573C71.832 8.72283 72.2087 7.78931 72.9697 7.02529C73.7231 6.25875 74.6546 5.87421 75.7541 5.87421C76.8562 5.87421 77.7903 6.25875 78.564 7.02529C79.3301 7.78931 79.7195 8.72536 79.7195 9.81573C79.7195 10.9086 79.3301 11.8371 78.564 12.5885ZM73.2217 37.2293H78.2866C78.6454 37.2293 78.9432 36.9409 78.9432 36.5842V17.5267C78.9432 17.0916 78.5462 16.7551 78.116 16.826L73.1224 17.6178C72.8043 17.6684 72.5828 17.934 72.5828 18.2528V36.5842C72.5803 36.9409 72.8628 37.2293 73.2217 37.2293Z" fill="white"/>
<path d="M97.4552 32.0912L99.0129 35.5875C99.0841 35.7392 99.0918 35.9189 99.0307 36.0782C98.9849 36.2098 98.8907 36.3236 98.7787 36.4021C97.4349 37.2799 95.8772 37.7176 94.0829 37.7176C91.9068 37.7176 90.0666 37.0269 88.5675 35.6482C87.0633 34.2643 86.3125 32.2961 86.3125 29.7536V21.3747H83.3016C82.9758 21.3747 82.7188 21.1217 82.7188 20.803V17.2688C82.7188 16.9551 82.9758 16.6945 83.3016 16.6945H86.3125V11.5108C86.3125 11.1187 86.6103 10.7873 86.9921 10.7367L91.9271 10.0764C92.062 10.0561 92.202 10.0865 92.3217 10.1548C92.5151 10.2661 92.6322 10.471 92.6322 10.6911V16.697H98.1297C98.4479 16.697 98.7049 16.9576 98.7049 17.2713V20.8055C98.7049 21.1243 98.4479 21.3772 98.1297 21.3772H92.6322V29.0984C92.6322 30.1407 92.8638 30.9401 93.3346 31.5017C93.8029 32.0608 94.4265 32.3416 95.2002 32.3416C95.6762 32.3416 96.1928 32.1848 96.735 31.8711C96.8851 31.7851 97.0633 31.7724 97.2185 31.8483H97.2262C97.3305 31.9065 97.4069 31.9925 97.4552 32.0912Z" fill="white"/>
<path d="M60.5042 16.2997C63.8892 16.2997 66.6406 17.4306 68.7607 19.6923C68.8472 19.7909 68.9007 19.9225 68.9007 20.0566C68.9007 20.2084 68.8421 20.35 68.7276 20.4487L65.5665 23.3403C65.4672 23.4264 65.3323 23.477 65.2025 23.477H65.1567C65.0142 23.477 64.8742 23.4112 64.7673 23.3049C63.7111 22.1842 62.3698 21.6226 60.7485 21.6226C59.2596 21.6226 58.043 22.1159 57.0987 23.0949C56.1545 24.074 55.6785 25.3339 55.6785 26.8644C55.6785 28.4254 56.1469 29.6903 57.0784 30.6592C58.0125 31.6256 59.2469 32.1139 60.7892 32.1139C62.4614 32.1139 63.7925 31.5523 64.7775 30.429C64.8768 30.3177 65.0244 30.2544 65.1745 30.2544H65.2076C65.34 30.2544 65.4723 30.305 65.5716 30.3936L68.7327 33.2801C68.8472 33.3864 68.9058 33.5255 68.9058 33.6723C68.9058 33.8064 68.8523 33.943 68.7658 34.0391C66.6431 36.3059 63.8943 37.4367 60.5093 37.4367C57.2922 37.4367 54.6147 36.4324 52.492 34.4312C50.3693 32.4276 49.3105 29.9078 49.3105 26.867C49.3105 23.8311 50.3693 21.3089 52.492 19.3077C54.607 17.3016 57.2845 16.2997 60.5042 16.2997Z" fill="white"/>
<path d="M122.579 16.7805L117.799 16.783C117.558 16.783 117.339 16.9221 117.237 17.1397L111.923 28.8125L106.603 17.1397C106.504 16.9221 106.285 16.783 106.041 16.783L101.266 16.7805C101.118 16.7805 100.981 16.8614 100.902 16.9854C100.831 17.1068 100.823 17.251 100.877 17.3775L107.059 31.016L108.713 34.5527L108.721 34.5375L108.713 34.5527L109.014 35.2003L108.477 36.3843C107.909 37.5607 106.955 38.1603 105.631 38.1603C105.137 38.1603 104.654 38.0464 104.185 37.8263C104.053 37.7631 103.893 37.758 103.76 37.8339C103.664 37.8871 103.582 37.9807 103.549 38.0894L102.48 41.4238C102.419 41.606 102.439 41.8033 102.534 41.9677C102.597 42.0892 102.691 42.1878 102.816 42.2536C103.758 42.752 104.893 42.9999 106.242 42.9999C109.668 42.9999 112.185 41.2214 113.77 37.6619L122.974 17.375C123.025 17.2485 123.017 17.1017 122.946 16.9828C122.862 16.8589 122.722 16.7805 122.579 16.7805Z" fill="white"/>
<path d="M37.1364 0H4.96815C2.22447 0 0 2.2111 0 4.93828V36.9132C0 39.6404 2.22447 41.8514 4.96815 41.8514H37.1364C39.8801 41.8514 42.1046 39.6378 42.1046 36.9132V4.93828C42.1071 2.2111 39.8801 0 37.1364 0ZM14.7187 35.3067C14.7187 35.6533 14.4362 35.9316 14.09 35.9316H9.16258C8.81135 35.9316 8.53138 35.6533 8.53138 35.3067V17.4788C8.53138 17.1727 8.75535 16.9096 9.06077 16.8615L13.9144 16.0924C14.3343 16.0292 14.7161 16.3505 14.7161 16.773V35.3067H14.7187ZM14.3573 11.9688C13.6064 12.7024 12.6953 13.0667 11.6238 13.0667C10.5522 13.0667 9.64871 12.7024 8.91061 11.9688C8.17251 11.2376 7.80601 10.3395 7.80601 9.27446C7.80601 8.20939 8.17251 7.3037 8.91061 6.55739C9.64871 5.81361 10.5497 5.4392 11.6238 5.4392C12.6953 5.4392 13.6064 5.81361 14.3573 6.55739C15.1055 7.30117 15.4822 8.20686 15.4822 9.27446C15.4822 10.3395 15.1081 11.2376 14.3573 11.9688ZM34.2579 34.8159C34.2095 34.9449 34.123 35.0562 34.011 35.1347C32.7079 35.9847 31.1859 36.4123 29.445 36.4123C27.3274 36.4123 25.5407 35.7393 24.0823 34.396C22.6214 33.0501 21.8935 31.14 21.8935 28.6633V20.5172H18.9589C18.6484 20.5172 18.3964 20.2667 18.3964 19.9581V16.525C18.3964 16.2189 18.6484 15.9659 18.9589 15.9659H21.8935V10.9214C21.8935 10.5394 22.176 10.2181 22.5552 10.1675L27.3528 9.52745C27.4852 9.50974 27.6226 9.53504 27.7372 9.60334C27.9255 9.71213 28.04 9.90946 28.04 10.1245V15.9659H33.3849C33.6954 15.9659 33.9474 16.2164 33.9474 16.525V19.9606C33.9474 20.2667 33.6954 20.5197 33.3849 20.5197H28.04V28.0258C28.04 29.0402 28.2666 29.8169 28.7247 30.3634C29.1803 30.9098 29.7835 31.183 30.5318 31.183C31.0001 31.183 31.4989 31.0312 32.0283 30.7251C32.1734 30.6416 32.349 30.629 32.4992 30.7024L32.5043 30.7049C32.6035 30.7555 32.685 30.839 32.7282 30.9427L34.2426 34.3428C34.3062 34.4921 34.3164 34.6616 34.2579 34.8159Z" fill="white"/>
</svg>
